<svg width="51" height="51" viewBox="0 0 51 51" fill="none" xmlns="http://www.w3.org/2000/svg">
<path d="M25.5 50.1791C39.1299 50.1791 50.1791 39.1299 50.1791 25.5C50.1791 11.8701 39.1299 0.820938 25.5 0.820938C11.8701 0.820938 0.820923 11.8701 0.820923 25.5C0.820923 39.1299 11.8701 50.1791 25.5 50.1791Z" fill="white"/>
<path d="M27.9817 11.4906C27.7654 11.452 26.7223 11.2768 25.5 11.2768C24.2776 11.2768 23.2346 11.4511 23.0182 11.4906C22.894 11.5128 22.8463 11.3911 22.9409 11.3204C23.0265 11.257 25.4992 9.37495 25.4992 9.37495L28.0566 11.3204C28.1528 11.3911 28.1059 11.5128 27.9817 11.4906ZM23.7092 23.7109C23.7092 23.7109 23.5784 23.7578 23.5439 23.8729C24.0621 24.2711 24.4191 25.1767 25.5 25.1767C26.5808 25.1767 26.9378 24.2711 27.4552 23.8729C27.4215 23.757 27.2907 23.7109 27.2907 23.7109C27.2907 23.7109 26.6137 23.8705 25.5 23.8705C24.3862 23.8705 23.7092 23.7109 23.7092 23.7109ZM25.5 22.1866C25.1997 22.1866 25.1339 22.0731 24.9291 22.074C24.7342 22.0748 24.3558 22.2302 24.2735 22.3726C24.2793 22.4449 24.3056 22.5099 24.3582 22.5675C24.7958 22.6333 24.9933 22.8768 25.5008 22.8768C26.0083 22.8768 26.2049 22.6333 26.6434 22.5675C26.6944 22.5099 26.7223 22.4458 26.7281 22.3726C26.6467 22.2302 26.2674 22.0756 26.0717 22.074C25.866 22.0723 25.7994 22.1866 25.5 22.1866ZM50.1412 26.8531C50.1099 27.4429 50.0573 28.0278 49.9849 28.6061C47.1914 29.0684 46.1928 26.5792 43.3311 26.7043C43.5021 27.3113 43.6412 27.9299 43.7481 28.5616C46.1081 28.56 47.059 30.7662 49.6847 30.4412C49.5465 31.1158 49.3803 31.7812 49.1887 32.4368C47.1125 32.6408 46.3812 30.5778 43.9784 30.6346C43.9982 30.9767 44.0089 31.3222 44.0089 31.671L43.999 32.2476L48.6647 34.0277C48.4204 34.6915 48.1473 35.3405 47.8495 35.9764C46.447 35.8991 45.9633 34.1001 43.8295 34.2432C43.7654 34.7047 43.6839 35.1604 43.5869 35.6103C45.4402 35.4804 45.8391 37.1864 47.1667 37.3246C46.8287 37.9415 46.4643 38.542 46.0768 39.1269C45.2904 38.7057 44.6085 37.4348 43.1172 37.3567C43.2702 36.8845 43.4043 36.4058 43.5178 35.9188C42.1951 35.9188 40.6823 35.403 39.4139 34.2481C39.8252 31.9071 36.1919 29.5232 36.1919 27.809C36.1919 25.9467 37.1337 24.916 37.1337 22.4055C37.1337 20.5423 36.2289 18.5212 34.8642 17.1401C34.6002 16.872 34.3296 16.6548 34.0186 16.4598C35.2722 18.0112 36.2346 19.8505 36.2346 21.981C36.2346 24.3451 35.1349 25.593 35.1349 27.7753C35.1349 29.9567 38.3265 31.8446 38.3265 34.0943C38.3265 34.9794 38.0435 35.844 37.1107 37.5418C38.5436 38.973 40.4101 39.7537 41.6143 39.7537C42.0051 39.7537 42.2148 39.6344 42.3547 39.3276C42.4748 39.0627 42.5891 38.7945 42.6968 38.5239C43.9941 38.5741 44.588 39.7529 45.3061 40.2234C44.9121 40.7523 44.4983 41.2631 44.0648 41.7575C43.5836 41.2245 42.937 40.3278 41.9902 40.0786C41.8208 40.4076 41.6415 40.7325 41.4531 41.0509C42.2683 41.273 42.826 42.0956 43.2578 42.6368C42.7923 43.1189 42.3078 43.5811 41.8035 44.0253C41.4885 43.5351 40.9982 42.9132 40.4487 42.5776C40.2456 42.8523 40.0341 43.1205 39.8162 43.3813C40.2834 43.698 40.6955 44.268 40.9645 44.7328C40.3821 45.2 39.78 45.6434 39.1565 46.0579C38.8488 43.5515 35.4277 41.834 36.3498 38.9262C36.0471 39.4386 35.686 40.0794 35.686 40.851C35.686 42.956 37.9283 44.6266 38.1068 46.7185C37.6421 46.9965 37.1666 47.2581 36.6821 47.5057C36.6015 45.2066 34.2276 42.6903 34.2276 40.8033C34.2276 38.6967 36.9865 36.581 36.9865 34.0943C36.9865 31.606 33.8031 29.8835 33.8031 27.6988C33.8031 25.5156 35.1571 24.2596 35.1571 21.4611C35.1571 19.4113 34.1831 17.3367 32.6786 16.0115C32.4121 15.7763 32.1497 15.5896 31.8347 15.4259C33.2536 17.1278 34.0762 18.6718 34.0762 21.0145C34.0762 23.6459 32.5248 25.1068 32.5248 27.6831C32.5248 30.2603 35.649 31.6932 35.649 34.0951C35.649 36.4971 32.7412 38.5215 32.7412 40.9892C32.7412 43.234 35.3043 45.4747 35.3422 48.1382C34.782 48.3825 34.2111 48.6055 33.6304 48.8078C33.9561 46.1172 31.0713 43.3418 31.0713 41.1463C31.0713 38.746 34.0877 36.683 34.0877 34.0951C34.0877 31.5057 31.0211 30.3022 31.0211 27.6445C31.0211 24.9884 32.9024 23.5176 32.9024 20.5826C32.9024 18.295 31.773 16.2377 30.1229 14.9627L30.0184 14.8838C29.8629 14.7686 29.7346 14.9076 29.8448 15.0442C31.0129 16.5026 31.6372 17.9775 31.6372 20.1615C31.6372 22.8464 29.4763 25.0278 29.4763 27.6288C29.4763 30.6987 32.3784 31.5764 32.3784 34.0951C32.3784 36.6131 29.2666 38.6276 29.2666 41.301C29.2666 43.7802 32.2114 46.5317 31.7063 49.3935C31.1157 49.5465 30.5169 49.6798 29.909 49.7883C30.4618 46.2249 27.5729 43.6659 27.5729 41.3347C27.5729 38.811 30.7957 36.5612 30.7957 34.0951C30.7957 31.7689 28.4827 31.0088 28.1783 28.6291C28.1363 28.3042 27.8756 28.0632 27.5161 28.1232C27.0464 28.2088 26.4443 28.518 25.4983 28.518C24.5524 28.518 23.9502 28.2079 23.4797 28.1232C23.1211 28.064 22.8603 28.305 22.8184 28.6291C22.5148 31.0088 20.2001 31.7681 20.2001 34.0951C20.2001 36.5612 23.4238 38.8102 23.4238 41.3347C23.4238 43.6659 20.5349 46.2249 21.0868 49.7883C20.4798 49.6789 19.8801 49.5457 19.2895 49.3935C18.7844 46.5317 21.7301 43.7802 21.7301 41.301C21.7301 38.6276 18.6174 36.6131 18.6174 34.0951C18.6174 31.5764 21.5203 30.6987 21.5203 27.6288C21.5203 25.0278 19.3586 22.8472 19.3586 20.1615C19.3586 17.9783 19.9829 16.5034 21.1518 15.0442C21.2612 14.9076 21.1337 14.7686 20.9774 14.8838L20.8738 14.9627C19.2253 16.2345 18.0967 18.2917 18.0967 20.5793C18.0967 23.5143 19.978 24.9851 19.978 27.6412C19.978 30.2981 16.9114 31.5015 16.9114 34.0919C16.9114 36.6797 19.9278 38.7427 19.9278 41.143C19.9278 43.3393 17.043 46.1139 17.3696 48.8045C16.788 48.6022 16.2172 48.3784 15.657 48.135C15.6956 45.4714 18.2572 43.2299 18.2572 40.9859C18.2572 38.5182 15.351 36.4938 15.351 34.0919C15.351 31.6899 18.4735 30.257 18.4735 27.6798C18.4735 25.1035 16.9229 23.6426 16.9229 21.0112C16.9229 18.6685 17.7447 17.1245 19.1636 15.4226C18.8478 15.5863 18.5862 15.773 18.3205 16.0082C16.816 17.3334 15.8429 19.408 15.8429 21.4578C15.8429 24.2563 17.1968 25.5123 17.1968 27.6955C17.1968 29.8802 14.0135 31.6027 14.0135 34.091C14.0135 36.5777 16.7724 38.6942 16.7724 40.8C16.7724 42.6878 14.3968 45.2041 14.317 47.5024C13.8325 47.2548 13.357 46.9932 12.8923 46.7152C13.0716 44.6234 15.3131 42.9527 15.3131 40.8477C15.3131 40.0761 14.9528 39.4353 14.6493 38.9229C15.5714 41.8307 12.1503 43.5482 11.8427 46.0546C11.2192 45.6401 10.6162 45.1967 10.0346 44.7295C10.3028 44.2655 10.7149 43.6947 11.183 43.378C10.9642 43.118 10.7536 42.849 10.5504 42.5743C10.0001 42.9099 9.50901 43.5318 9.19478 44.022C8.69219 43.5787 8.20686 43.1156 7.74128 42.6335C8.17314 42.0923 8.73085 41.2697 9.54602 41.0476C9.35765 40.7293 9.17833 40.4052 9.00888 40.0753C8.06209 40.3246 7.41472 41.2212 6.93433 41.7542C6.50083 41.259 6.08625 40.7482 5.69306 40.2201C6.41117 39.7496 7.00507 38.57 8.30146 38.5206C8.41004 38.7904 8.52438 39.0586 8.64447 39.3243C8.78431 39.6311 8.99489 39.7504 9.3848 39.7504C10.5891 39.7504 12.4547 38.9698 13.8884 37.5385C12.9556 35.8407 12.6727 34.9761 12.6727 34.091C12.6727 31.8421 15.8643 29.9543 15.8643 27.772C15.8643 25.5897 14.7645 24.3418 14.7645 21.9777C14.7645 19.8472 15.7269 18.0079 16.9805 16.4566C16.6696 16.6515 16.3989 16.8687 16.1349 17.1368C14.7702 18.5188 13.8654 20.539 13.8654 22.4022C13.8654 24.9127 14.8081 25.9434 14.8081 27.8057C14.8081 29.52 11.1739 31.9038 11.5852 34.2449C10.3168 35.3998 8.80406 35.9155 7.48052 35.9155C7.59568 36.4025 7.72977 36.8812 7.88112 37.3534C6.3906 37.4324 5.70868 38.7032 4.92147 39.1236C4.53322 38.5387 4.16964 37.9382 3.83156 37.3213C5.15838 37.1831 5.55815 35.4771 7.41225 35.607C7.31518 35.1571 7.23293 34.7006 7.16877 34.2399C5.03499 34.0968 4.55131 35.8966 3.14881 35.9731C2.85104 35.3372 2.57794 34.6882 2.33364 34.0244L7.00014 32.2443L6.99027 31.6677C6.99027 31.3189 7.00096 30.9735 7.01988 30.6313C4.61712 30.5753 3.88585 32.6375 1.80965 32.4335C1.61881 31.7779 1.45183 31.1133 1.31446 30.438C3.93849 30.7629 4.89022 28.5567 7.25102 28.5584C7.35796 27.9266 7.49698 27.308 7.66725 26.701C4.80549 26.5768 3.80688 29.0659 1.01422 28.6028C0.941007 28.0245 0.889185 27.4396 0.857927 26.8499C4.10465 27.2126 5.32207 24.5433 8.27843 24.8699C8.55728 24.1633 8.88138 23.4797 9.2466 22.8217C5.54006 22.1702 4.28151 25.2697 0.831604 24.7934C1.20423 11.4915 12.1059 0.820938 25.5 0.820938C38.8941 0.820938 49.7957 11.4915 50.1683 24.7967C46.7176 25.273 45.4591 22.1743 41.7533 22.825C42.1177 23.483 42.4418 24.1666 42.7215 24.8732C45.6762 24.5458 46.8937 27.2159 50.1412 26.8531ZM14.892 16.5026C13.0749 15.7598 10.8753 15.9309 8.99654 17.1376C8.70535 15.3897 7.75691 13.8366 6.40623 12.8997C6.21951 12.7706 6.02538 12.8931 6.04265 13.1095C6.32809 16.8029 4.16881 20.0101 1.51352 22.8291C4.25025 23.6517 6.5798 20.1277 10.1292 21.3575C11.4026 19.4614 13.0198 17.8138 14.892 16.5026ZM25.5 14.2685C23.2091 14.2685 21.29 15.5641 20.7874 17.238C20.7487 17.3663 20.8014 17.4494 20.9495 17.3828C21.3616 17.1977 21.8304 17.1089 22.3396 17.1089C23.2741 17.1089 24.0975 17.4519 24.5844 18.0491C24.8 18.7598 24.8181 19.7888 24.5746 20.3761C24.1896 20.2898 24.0514 19.992 23.6755 19.992C23.2996 19.992 23.0084 20.2561 22.3709 20.2561C21.7342 20.2561 21.6593 19.955 21.2407 19.955C20.7479 19.955 20.6574 20.4625 20.6574 21.035C20.6574 23.5875 23.0034 27.0999 25.4992 27.0999C27.994 27.0999 30.34 23.5875 30.34 21.035C30.34 20.4625 30.2224 19.9723 29.7075 19.9056C29.4508 20.0907 29.2147 20.2561 28.6274 20.2561C27.9899 20.2561 27.8139 19.992 27.4388 19.992C26.9856 19.992 27.0308 20.9478 26.4928 21.0013C26.1342 20.1392 26.1169 19.0337 26.4147 18.0491C26.9025 17.4519 27.7251 17.1089 28.6595 17.1089C29.1687 17.1089 29.6408 17.1985 30.0488 17.3828C30.1977 17.4494 30.2496 17.3655 30.2109 17.238C29.7091 15.5641 27.7909 14.2685 25.5 14.2685ZM29.1473 17.9306C28.5978 17.9306 27.9537 18.0992 27.549 18.55C27.5071 18.6726 27.5071 18.8552 27.5663 18.9769C28.5624 18.6356 29.441 18.6224 29.8654 19.097C30.0916 18.8914 30.164 18.7063 30.164 18.4916C30.164 18.1601 29.8267 17.9306 29.1473 17.9306ZM21.1345 19.097C21.6149 18.6158 22.6275 18.6364 23.6796 19.0246C23.7257 18.5015 22.7887 17.9298 21.8527 17.9298C21.1724 17.9298 20.8359 18.1593 20.8359 18.4916C20.8359 18.7063 20.9083 18.8922 21.1345 19.097ZM36.9232 10.4566C35.1143 10.5858 33.5432 11.2068 32.2723 12.2416C32.8119 10.7116 33.4971 9.37331 34.3657 8.0761C32.0625 8.32041 30.1369 9.16273 28.7319 10.6022L27.6321 7.7191L30.0735 5.56312L26.8046 5.33197L25.5 2.29171L24.1945 5.33197L20.9256 5.56312L23.367 7.7191L22.2681 10.6022C20.8623 9.16273 18.9366 8.32041 16.635 8.0761C17.502 9.37413 18.1872 10.7125 18.7268 12.2416C17.4568 11.206 15.8857 10.585 14.0768 10.4566C15.1618 11.8517 16.1234 13.339 16.8357 14.9381C16.9163 15.1182 17.0891 15.1774 17.2758 15.0845C19.7534 13.8531 22.5453 13.1605 25.4992 13.1605C28.453 13.1605 31.2441 13.8539 33.7233 15.0845C33.91 15.1774 34.0828 15.1182 34.1626 14.9381C34.8757 13.339 35.8373 11.8517 36.9232 10.4566ZM40.8724 21.3591C44.4202 20.1294 46.7505 23.6525 49.4872 22.8307C46.832 20.0117 44.6735 16.8045 44.9589 13.1111C44.9762 12.8948 44.7813 12.7714 44.5954 12.9014C43.2439 13.8383 42.2954 15.3913 42.0051 17.1393C40.1255 15.9326 37.9267 15.7606 36.1096 16.5043C37.9793 17.8138 39.5974 19.4614 40.8724 21.3591Z" fill="#006341"/>
<path d="M44.0862 46.8953H42.8309V50.272H42.381V46.8953H41.129V46.4758H44.0862V46.8953ZM44.6135 46.4758H45.2806L46.572 49.4519H46.5811L47.8758 46.4758H48.5323V50.272H48.079V47.0894H48.0691L46.7094 50.272H46.4355L45.0708 47.0894H45.0618V50.272H44.6135V46.4758Z" fill="#006341"/>
</svg>
